<svg xmlns="http://www.w3.org/2000/svg" viewBox="0 0 3319 1505" display="block"><path d="m1097 166 4 1 831 831v2h-283l-559-559-4 2-12 12-7 8-13 14-9 11-12 14-13 17-15 20-16 23-12 19-9 15-12 21-15 28-16 34-12 29-10 27-11 33-10 36-9 40-7 41-5 44-2 28-1 29-1 14H651v-44l3-46 5-45 7-45 10-48 10-40 13-43 12-35 15-38 14-32 14-29 14-28 13-23 17-29 16-25 15-22 13-18 14-19 13-16 11-14 13-15 12-14 15-16 12-13 30-30 8-7 16-15 11-9 10-9 11-9 16-13 16-12 19-14 23-16Zm1102-1 5 1 14 10 19 13 13 10 17 13 16 13 11 9 14 12 11 10 8 7 15 14 39 39 7 8 12 13 9 11 9 10 9 11 11 14 14 18 13 18 16 23 11 17 15 24 15 26 12 22 14 27 12 25 16 37 15 39 12 36 9 29 11 42 10 47 7 43 5 41 3 36 2 49v18h-207l-2-47-3-37-5-39-7-39-9-39-10-35-15-44-13-32-9-20-12-25-14-27-14-24-13-21-19-28-14-19-10-13-13-16-11-13-9-10-7-8-12-13-11-11-4 2-358 358-7-6-135-135 2-4Z" fill="#00599d"/><path d="M1608 0h84l47 3 45 5 45 7 40 8 48 12 40 12 38 13 38 15 30 13 40 19 19 10 6 4-6 7-147 147-5-1-31-13-36-13-32-10-38-10-39-8-38-6-36-4-29-2-31-1h-20l-31 1-39 3-40 5-40 7-39 9-35 10-36 12-26 10-28 12-4-2-151-151v-2l33-17 22-11 29-13 27-11 35-13 36-12 34-10 40-10 50-10 39-6 45-5Z" fill="#e83a26"/><path d="M707 1168h80l12 19 15 24 16 26 12 19 16 26 15 24 11-17 16-26 12-19 16-26 15-24 15-24 1-2h80v332h-73l-1-213-13 20-29 44-27 41-22 33h-4l-12-19-20-30-29-44-27-41-1-2-1 211h-73Zm900 0h80l14 22 16 26 15 24 15 24 16 26 10 16 11-17 13-21 15-24 16-26 12-19 16-26 3-5h80v332h-73l-1-213-16 25-22 33-27 41-26 39h-4l-10-16-18-27-29-44-27-41-5-8-1 211h-73Z" fill="#00599c"/><path d="m3140 1162 24 1 24 4 20 6 21 9 15 9 16 12 13 12 9 10 12 17 11 21 7 19 5 22 2 18v23l-2 18-6 25-8 20-8 15-9 13-8 10-11 12-8 7-16 12-18 10-16 7-19 6-20 4-9 1h-38l-25-4-20-6-19-8-16-9-16-12-10-9-10-10-13-17-9-16-7-15-6-18-4-19-1-8v-39l3-19 6-21 8-18 8-15 12-16 9-10 13-13 15-11 15-9 17-8 18-6 23-5Zm-12 69-17 4-13 5-16 10-12 11-10 13-8 15-5 15-3 15v29l4 18 6 16 9 15 9 10 5 5 9 8 16 9 18 6 11 2h25l18-4 12-5 14-8 11-9 10-11 8-13 5-10 5-15 3-19v-17l-3-19-5-15-7-14-10-14-11-11-13-9-14-7-17-5-6-1Z" fill="#00599d"/><path d="M2640 1168h164l19 2 21 5 15 6 13 7 13 10 9 9 10 15 7 16 4 16 1 6 1 21-2 22-6 21-9 17-8 10-13 13-14 9-16 8-2 1 16 23 16 24 10 14 16 24 10 14 11 16v3h-86l-29-44-14-20-27-41-57-1v106h-73Zm73 67v94h79l14-2 13-5 11-8 6-8 5-12 1-6v-13l-3-12-5-9-6-7-10-6-10-4-11-2Z" fill="#00599c"/><path d="M2017 1168h251v66h-177v66h155v66h-155v68h179v66h-253Z" fill="#00589c"/><path d="M0 1168h74v131h133v-131h74v332h-74v-133H74v133H0Z" fill="#00599c"/><path d="m514 1162 27 1 25 4 21 6 18 8 14 8 12 9 14 12 3 3-2 4-12 14-13 15-13 15-6 7-4-2-13-11-16-10-17-8-21-5h-28l-16 4-12 5-12 7-12 10-11 14-8 14-5 13-4 18-1 10v13l3 21 6 18 9 17 9 11 9 9 10 7 16 8 15 4 6 1h25l20-4 17-7 16-10 13-11 6-5 4 1 44 44-1 4-17 17-17 13-19 11-20 8-19 5-22 3h-39l-24-4-20-6-20-9-18-11-13-11-8-7-11-12-11-15-10-18-8-20-5-18-3-18-1-12v-19l2-20 5-22 7-20 12-23 12-16 9-10 12-12 16-12 18-10 19-8 17-5 24-4Zm758 0 27 1 26 4 20 6 16 7 13 7 14 10 11 9 7 7-2 5-11 12-9 11-10 11-9 11-6 5-13-11-15-10-16-8-15-5-11-2h-27l-17 4-16 7-14 10-10 10-10 14-8 17-5 19-1 7v27l4 20 6 16 9 15 9 11 10 9 11 7 13 6 14 4 6 1h26l16-3 16-6 16-9 13-10 10-9 4 1 45 45-2 4-11 11-11 9-13 10-18 10-14 6-20 6-17 3-9 1h-39l-20-3-22-6-18-8-15-8-14-10-12-11-12-12-12-16-10-18-8-19-5-17-4-24v-37l3-20 6-21 6-15 10-19 12-17 14-15 11-10 16-11 16-9 20-8 19-5 19-3Z" fill="#00599d"/><path d="M2310 1168h275v68h-101v264h-73v-264h-101Z" fill="#00599c"/></svg>